<svg xmlns="http://www.w3.org/2000/svg" xmlns:xlink="http://www.w3.org/1999/xlink" width="152" height="30" viewBox="0 0 152 30">
    <defs>
        <filter id="c0qhzhloma" width="116.7%" height="204.3%" x="-8.3%" y="-52.2%" filterUnits="objectBoundingBox">
            <feOffset dy="2" in="SourceAlpha" result="shadowOffsetOuter1"/>
            <feGaussianBlur in="shadowOffsetOuter1" result="shadowBlurOuter1" stdDeviation="2"/>
            <feColorMatrix in="shadowBlurOuter1" result="shadowMatrixOuter1" values="0 0 0 0 0 0 0 0 0 0 0 0 0 0 0 0 0 0 0.4 0"/>
            <feMerge>
                <feMergeNode in="shadowMatrixOuter1"/>
                <feMergeNode in="SourceGraphic"/>
            </feMerge>
        </filter>
        <path id="mudevsf6jb" d="M28.568 22.067c.012-.074.03-.147.054-.22l.073-.22.637-1.482h7.282l.655 1.5c.024.062.049.126.073.193.024.067.048.143.073.229h3.713c-.024-.098-.051-.19-.082-.275-.03-.085-.07-.177-.118-.274l-4.442-9.809c-.352-.768-.816-1.342-1.392-1.72-.577-.378-1.296-.567-2.157-.567-.886 0-1.614.189-2.185.567-.57.378-1.031.952-1.383 1.72l-4.406 9.809c-.048.097-.088.189-.118.274-.03.086-.058.177-.082.275h3.805zm6.844-4.648h-4.878l1.875-4.429c.06-.146.14-.247.236-.302.097-.055.2-.082.31-.082.121 0 .23.03.327.091.098.061.176.16.237.293l1.893 4.429zm10.34 4.648v-5.472l5.898 4.96c.243.194.425.365.546.512h4.915c-.073-.086-.149-.165-.228-.238-.079-.073-.16-.147-.245-.22l-7.264-5.91c-.072-.061-.109-.129-.109-.202 0-.073.037-.14.11-.201l6.771-5.27c.06-.049.121-.1.182-.156.06-.055.11-.113.146-.174h-4.606c-.145.183-.315.354-.51.513l-5.606 4.556V9.696H42.42v12.37h3.33zm15.764 0c.012-.074.03-.147.055-.22l.073-.22.637-1.482h7.281l.655 1.5c.025.062.049.126.073.193.024.067.049.143.073.229h3.714c-.025-.098-.052-.19-.082-.275-.03-.085-.07-.177-.119-.274l-4.441-9.809c-.352-.768-.816-1.342-1.393-1.72-.576-.378-1.295-.567-2.157-.567-.886 0-1.614.189-2.184.567-.57.378-1.032.952-1.384 1.72l-4.405 9.809c-.049.097-.088.189-.119.274-.03.086-.057.177-.081.275h3.804zm6.845-4.648h-4.879l1.875-4.429c.06-.146.14-.247.237-.302.097-.055.2-.082.31-.082.12 0 .23.03.327.091s.176.16.236.293l1.894 4.429zm22.517 4.648v-9.095h5.389V9.696H82.159v3.276h5.406v9.095h3.313zm20.731 0V18.9h-9.356c-.194 0-.291-.11-.291-.33v-1.5h9.593v-2.379h-9.593v-1.409c0-.207.097-.311.29-.311h9.357V9.696h-11.195c-1.165 0-1.747.555-1.747 1.666v8.985c0 1.146.576 1.72 1.729 1.72h11.213zm15.38 0v-3.258h-6.445c-.582 0-1.074-.085-1.474-.256-.4-.17-.734-.402-1.001-.695-.243-.256-.431-.552-.565-.888-.133-.335-.2-.692-.2-1.07 0-.415.082-.805.246-1.171.164-.366.385-.683.664-.952.267-.244.583-.439.947-.585.364-.147.825-.22 1.383-.22h6.445V9.696h-6.445c-.995 0-1.865.144-2.612.43-.746.287-1.392.687-1.938 1.199-.62.573-1.105 1.25-1.457 2.031-.352.781-.528 1.623-.528 2.526 0 .817.14 1.58.42 2.287.278.708.667 1.336 1.164 1.885.57.622 1.262 1.113 2.075 1.473.813.36 1.772.54 2.876.54h6.445zm5.713 0V17.29h7.336v4.776h3.313V9.697h-3.313v4.483h-7.336V9.696h-3.313v12.37h3.313z"/>
    </defs>
    <g fill="none" fill-rule="evenodd">
        <g fill="#FFF" fill-rule="nonzero">
            <g filter="url(#c0qhzhloma)" transform="translate(-20.000000, -22.000000) translate(24.000000, 24.000000)">
                <g>
                    <g>
                        <path d="M8.8 8.533c1.455 4.367 3.32 8.586 5.571 12.598.624 1.065 3.166.062 3.602-.764C21.611 13.46 26.111 7.05 31.366 1.29c.573-.627-.492-.834-.91-.828-.878.003-1.724.334-2.374.928-5.379 5.896-9.986 12.458-13.71 19.527l3.601-.758c-2.244-4.014-4.105-8.232-5.558-12.599-.35-1.052-3.939 0-3.609.972H8.8zM.038 8.564c1.781 4.45 3.94 8.738 6.45 12.817.168.27.73.357.99.376.487.026.972-.058 1.422-.244.623-.27 1.37-.858.928-1.572-2.405-3.922-4.469-8.045-6.17-12.323-.305-.764-1.42-.69-2.068-.514-.486.132-1.87.733-1.54 1.491l-.012-.031z"/>
                        <g>
                            <use xlink:href="#mudevsf6jb"/>
                            <use xlink:href="#mudevsf6jb"/>
                        </g>
                    </g>
                </g>
            </g>
        </g>
    </g>
</svg>
