<svg xmlns="http://www.w3.org/2000/svg" xmlns:xlink="http://www.w3.org/1999/xlink" width="301" height="105" viewBox="0 0 301 105">
    <defs>
        <path id="0engqwzvna" d="M132.178 65.755v-3.34h6.346v-1.197h-6.346v-2.373h6.806v-1.197h-8.337v8.107h1.531zm9.167 0V62.14h4.273l1.9 3.616h1.635l-1.911-3.639c.721-.069 1.236-.278 1.543-.628.307-.349.46-.785.46-1.307v-.575c0-.292-.046-.557-.138-.795-.092-.238-.24-.443-.443-.616-.204-.173-.466-.307-.789-.403-.322-.096-.714-.144-1.175-.144h-6.886v8.107h1.531zm5.355-4.814h-5.355v-2.096h5.355c.676 0 1.014.25 1.014.749v.599c0 .499-.338.748-1.014.748zm12.116 4.814v-1.197h-6.807V62.07h6.461v-1.198h-6.46v-2.027h6.806v-1.197h-8.338v8.107h8.338zm2.89 0v-8.107h-1.531v8.107h1.531zm7.97 0c1.927 0 2.89-.576 2.89-1.727v-2.695h-1.532v2.695c0 .353-.453.53-1.359.53h-3.581c-.906 0-1.359-.185-1.359-.553v-4.607c0-.368.453-.553 1.359-.553h6.345v-1.197h-6.345c-1.927 0-2.89.583-2.89 1.75v4.607c0 1.167.963 1.75 2.89 1.75h3.581zm5.838 0V62.07h6.634v3.685h1.531v-8.107h-1.531v3.224h-6.634v-3.224h-1.531v8.107h1.531zm14.96 0v-6.91h4.134v-1.197h-9.915v1.197h4.25v6.91h1.53zm5.32 0v-1.497h-1.808v1.497h1.808zm8.822 0v-3.34h6.345v-1.197h-6.345v-2.373h6.806v-1.197h-8.338v8.107h1.532zm15.478 0c.46 0 .852-.048 1.175-.144.322-.096.585-.23.788-.403.204-.173.352-.378.444-.616.092-.238.138-.503.138-.795v-4.191c0-.292-.046-.557-.138-.795-.092-.238-.24-.443-.444-.616-.203-.173-.466-.307-.788-.403-.323-.096-.714-.144-1.175-.144h-5.355c-.46 0-.852.048-1.175.144-.322.096-.585.23-.789.403-.203.173-.351.378-.443.616-.092.238-.138.503-.138.795v4.191c0 .292.046.557.138.795.092.238.24.443.443.616.204.173.467.307.79.403.322.096.713.144 1.174.144h5.355zm0-1.197h-5.355c-.676 0-1.014-.25-1.014-.749v-4.215c0-.499.338-.749 1.014-.749h5.355c.676 0 1.013.25 1.013.749v4.215c0 .499-.337.749-1.013.749zm5.516 1.197V62.14h4.273l1.9 3.616h1.635l-1.911-3.639c.721-.069 1.236-.278 1.543-.628.307-.349.46-.785.46-1.307v-.575c0-.292-.046-.557-.138-.795-.092-.238-.24-.443-.443-.616-.204-.173-.467-.307-.789-.403-.323-.096-.714-.144-1.175-.144h-6.886v8.107h1.531zm5.355-4.814h-5.355v-2.096h5.355c.676 0 1.014.25 1.014.749v.599c0 .499-.338.748-1.014.748zm7.613 4.814l2.867-6.219 2.81 6.22h1.152l3.743-8.108h-1.486l-2.845 6.219-2.81-6.22h-1.14l-2.844 6.22-2.822-6.22h-1.474l3.731 8.108h1.118zm10.284 0l4.25-6.53 4.18 6.53h1.727l-5.355-8.107h-1.117l-5.39 8.107h1.705zm12.437 0V62.14h4.273l1.9 3.616h1.635l-1.911-3.639c.721-.069 1.236-.278 1.543-.628.307-.349.46-.785.46-1.307v-.575c0-.292-.046-.557-.138-.795-.092-.238-.24-.443-.443-.616-.204-.173-.467-.307-.789-.403-.322-.096-.714-.144-1.175-.144h-6.886v8.107h1.531zm5.355-4.814H261.3v-2.096h5.355c.676 0 1.014.25 1.014.749v.599c0 .499-.338.748-1.014.748zm11.206 4.814c.576 0 1.055-.05 1.44-.15.383-.1.69-.245.92-.437.23-.192.394-.432.49-.72.096-.288.144-.624.144-1.008v-3.397c0-.4-.048-.748-.144-1.048-.096-.3-.26-.549-.49-.748-.23-.2-.537-.35-.92-.45-.385-.1-.864-.15-1.44-.15h-7.428v8.108h7.428zm0-1.197h-5.897v-5.713h5.897c.284 0 .52.02.708.058.188.038.338.104.45.196.11.092.19.215.235.368.046.154.07.346.07.576v3.386c0 .215-.024.395-.07.541-.046.146-.125.261-.236.346-.111.084-.26.146-.449.184-.188.038-.424.058-.708.058zm5.965 1.197v-1.497h-1.808v1.497h1.808z"/>
    </defs>
    <g fill="none" fill-rule="evenodd">
        <g fill-rule="nonzero">
            <g>
                <g>
                    <path fill="#1C75BC" d="M282.766 10.752c-2.759-.31-5.418.66-7.678 1.817-4.046 2.054-8.184 4.017-12.403 5.843-.678.297.276-.114.334-.137l-.724.297-1.437.593c-1.15.457-2.3.913-3.449 1.347-2.115.81-4.241 1.597-6.379 2.282l-3.218 1.141c-.127 0-1.495.434-1.495.48l.506-.16-1.253.388c-2.176.661-4.36 1.29-6.552 1.882-2.195.582-4.414 1.142-6.632 1.644-.493.179-1.007.298-1.529.353 0 0 1.678-.365.242-.057l-.77.16c-1.15.24-2.23.457-3.357.673-2.299.445-4.667.856-7.011 1.21-1.07.171-2.138.32-3.219.468l-1.93.25c1.206-.159-.426 0-.829.092-4.827.525-9.666.848-14.517.97h-3.276-2.896c-2.345 0-4.69-.076-7.035-.228-4.759-.228-9.51-.609-14.253-1.141-18.391-2.088-36.863-6.482-54.966-11.343C98.648 14.623 80.338 9.135 61.625 5.289 42.325 1.318 22.544-.964 2.854.394 1.904.457 1.53.53.582.615.194.849 0 1.687 0 3.128c0 1.44.23 2.36.693 2.759 1.508-.077 2.442-.131 3.954-.164h1.92 4.574c2.46.053 4.912.163 7.357.33 9.495.648 18.94 1.894 28.276 3.732 19.035 3.663 37.598 9.13 56.323 14.241 18.724 5.113 37.621 9.677 56.909 12.153 19.914 2.67 40.117 2.409 59.955-.776 19.605-3.276 38.662-9.22 56.633-17.664 2.103-.993 4.195-2.031 6.264-3.093.063-.032.524-.106.443-1.95-.045-1.024-.223-1.672-.535-1.944z" transform="translate(-533 -332) translate(533 332) translate(13.82 55.854)"/>
                    <path fill="#00AEEF" d="M.606 12.434c25.237-1.46 49.63 3.358 73.945 10.08 13.611 3.765 27.073 8.061 40.615 12 6.823 2.004 13.657 3.927 20.537 5.758 7.105 1.96 14.316 3.518 21.596 4.664 16.234 2.235 32.354 5.033 48.726 2.304.679-.115 1.772-.46 1.84-1.313.07-.852-.874-1.152-1.518-1.025-14.635 2.487-29.074.46-43.594-1.636-3.786-.552-7.548-1.06-11.287-1.877-3.74-.817-7.191-1.624-10.77-2.522-6.903-1.716-13.806-3.605-20.606-5.597-26.82-7.832-53.385-17.056-81.125-21.26-12.889-2.054-25.38-2.685-38.39-1.886-.393.097-.585.478-.577 1.142.01.664.213 1.053.608 1.168z" transform="translate(-533 -332) translate(533 332) translate(13.82 55.854)"/>
                </g>
                <g>
                    <g>
                        <path fill="#7DA3D5" d="M18.62 17.96c3.079 9.194 7.026 18.074 11.79 26.518 1.318 2.242 6.698.132 7.621-1.608 7.697-14.538 17.22-28.031 28.338-40.154 1.214-1.318-1.041-1.753-1.925-1.74-1.858.006-3.649.701-5.024 1.951C48.04 15.337 38.29 29.15 30.41 44.03l7.621-1.595c-4.748-8.449-8.687-17.328-11.762-26.519-.739-2.215-8.334 0-7.635 2.044h-.013z" transform="translate(-533 -332) translate(533 332) translate(.157 .127)"/>
                        <path fill="#000" d="M.08 18.026c3.77 9.367 8.336 18.393 13.648 26.98.356.567 1.543.752 2.097.791 1.028.053 2.055-.122 3.007-.514 1.318-.567 2.9-1.807 1.964-3.31-5.088-8.255-9.456-16.933-13.054-25.938-.646-1.609-3.007-1.45-4.378-1.081-1.029.277-3.956 1.542-3.257 3.138l-.027-.066zM60.448 46.448c.026-.154.065-.308.116-.462l.154-.462 1.348-3.12h15.407l1.387 3.158c.051.129.103.264.154.405.052.141.103.302.154.481h7.858c-.051-.205-.11-.398-.173-.577-.065-.18-.148-.373-.25-.578l-9.4-20.646c-.744-1.618-1.726-2.825-2.946-3.62-1.22-.797-2.741-1.195-4.564-1.195-1.875 0-3.416.398-4.622 1.194-1.207.796-2.183 2.003-2.928 3.621l-9.321 20.646c-.103.205-.186.398-.25.578-.065.18-.123.372-.174.577h8.05zm14.483-9.783H64.608l3.968-9.322c.128-.308.295-.52.5-.635.206-.116.424-.174.655-.174.257 0 .488.065.694.193.205.128.372.334.5.616l4.006 9.322zm21.879 9.783V34.931l12.48 10.439c.513.41.898.77 1.155 1.078h10.4c-.154-.18-.315-.346-.482-.5-.167-.154-.34-.309-.52-.463l-15.368-12.441c-.154-.128-.231-.27-.231-.424 0-.154.077-.295.23-.423l14.33-11.094c.128-.102.256-.211.385-.327.128-.116.23-.238.308-.366h-9.745c-.309.385-.668.745-1.079 1.079l-11.863 9.59V20.41h-7.05v26.038h7.05zm33.356 0c.026-.154.064-.308.116-.462l.154-.462 1.348-3.12h15.407l1.387 3.158c.051.129.103.264.154.405.051.141.103.302.154.481h7.858c-.052-.205-.11-.398-.174-.577-.064-.18-.147-.373-.25-.578l-9.398-20.646c-.745-1.618-1.727-2.825-2.947-3.62-1.22-.797-2.741-1.195-4.564-1.195-1.875 0-3.416.398-4.623 1.194-1.207.796-2.182 2.003-2.927 3.621l-9.321 20.646c-.103.205-.187.398-.25.578-.065.18-.123.372-.174.577h8.05zm14.483-9.783h-10.323l3.968-9.322c.128-.308.295-.52.5-.635.206-.116.424-.174.655-.174.257 0 .488.065.693.193.206.128.373.334.501.616l4.006 9.322zm47.647 9.783V27.305h11.401V20.41h-29.851v6.895h11.44v19.143h7.01zm41.484 0v-6.663h-19.798c-.411 0-.617-.231-.617-.694v-3.158h20.3v-5.007h-20.3V27.96c0-.437.206-.655.617-.655h19.798V20.41H210.09c-2.465 0-3.697 1.168-3.697 3.505v18.913c0 2.413 1.22 3.62 3.659 3.62h23.727zm30.16 0v-6.856h-13.636c-1.232 0-2.272-.18-3.12-.54-.847-.359-1.553-.847-2.118-1.463-.514-.54-.912-1.162-1.194-1.868-.283-.706-.424-1.457-.424-2.253 0-.873.173-1.695.52-2.465.347-.77.815-1.438 1.406-2.003.565-.514 1.232-.925 2.003-1.233.77-.308 1.746-.462 2.927-.462h13.636V20.41h-13.636c-2.105 0-3.948.302-5.527.905-1.58.604-2.947 1.445-4.102 2.523-1.31 1.207-2.337 2.632-3.082 4.276-.744 1.643-1.117 3.415-1.117 5.315 0 1.72.296 3.326.886 4.815.59 1.49 1.412 2.812 2.465 3.967 1.207 1.31 2.67 2.344 4.391 3.101 1.72.758 3.75 1.136 6.086 1.136h13.636zm10.322 0V36.395h15.523v10.053h7.01V20.41h-7.01v9.437h-15.523V20.41h-7.01v26.038h7.01z" transform="translate(-533 -332) translate(533 332) translate(.157 .127)"/>
                    </g>
                    <g transform="translate(-533 -332) translate(533 332) translate(.157 .127)">
                        <use fill="#000" xlink:href="#0engqwzvna"/>
                        <use fill="#1C75BC" xlink:href="#0engqwzvna"/>
                    </g>
                </g>
            </g>
        </g>
    </g>
</svg>
