<svg width="24" height="24" viewBox="0 0 24 24" xmlns="http://www.w3.org/2000/svg">
    <g fill-rule="nonzero" fill="none">
        <path fill="#B2E6FA" d="M2 5h20v14H2z"/>
        <path d="M21.342 4c1.551.007 1.651.107 1.658 1.658v12.684c-.007 1.551-.107 1.651-1.658 1.658H2.658c-1.551-.007-1.651-.107-1.658-1.658V5.658C1.007 4.107 1.107 4.007 2.658 4h18.684zm-1.16 1H3.824c-1.71.002-1.817.053-1.824 1.658v10.684c.007 1.551.107 1.651 1.658 1.658h16.684c1.551-.007 1.651-.107 1.658-1.658V6.658c-.007-1.603-.114-1.656-1.818-1.658zM5 7v10H4V7h1zm3 0v10H7V7h1zm3 0v10h-1V7h1zm3 0v10h-1V7h1zm3 0v10h-1V7h1zm3 0v10h-1V7h1z" fill="#1C75BC"/>
    </g>
</svg>
