<svg width="16" height="20" viewBox="0 0 16 20" xmlns="http://www.w3.org/2000/svg">
    <g fill="none" fill-rule="evenodd">
        <path d="M-4-2h24v24H-4z"/>
        <path d="M15.41 5.41 10.58.58C10.21.21 9.7 0 9.17 0H2C.9 0 .01.9.01 2L0 18c0 1.1.89 2 1.99 2H14c1.1 0 2-.9 2-2V6.83c0-.53-.21-1.04-.59-1.42z" fill="#1C75BC" fill-rule="nonzero"/>
        <path d="M11.483 12.507a.5.5 0 0 1 .5.5V15.5a.5.5 0 0 1-.5.5H8.006c-1.51 0-2.95-.634-3.97-1.746l-.883-.964a.467.467 0 0 1 .344-.783zm-2.64-1.502a.5.5 0 0 1 .5.5v.002a.5.5 0 0 1-.5.5h-2.72a.5.5 0 0 1-.5-.5v-.002a.5.5 0 0 1 .5-.5h2.72zm2.657 0a.5.5 0 0 1 .5.5v.002a.5.5 0 0 1-.5.5h-1.126a.5.5 0 0 1-.5-.5v-.002a.5.5 0 0 1 .5-.5H11.5zm0-1.503a.5.5 0 0 1 .5.5v.002a.5.5 0 0 1-.5.5H8.249a.5.5 0 0 1-.5-.5v-.002a.5.5 0 0 1 .5-.5H11.5zM11.5 8a.5.5 0 0 1 .5.5v.002a.5.5 0 0 1-.5.5H9.843a.5.5 0 0 1-.5-.5V8.5a.5.5 0 0 1 .5-.5H11.5z" fill="#FFF" fill-rule="nonzero"/>
    </g>
</svg>
