<svg width="21" height="18" viewBox="0 0 21 18" xmlns="http://www.w3.org/2000/svg">
    <g fill="none" fill-rule="evenodd">
        <path d="M-2-3h24v24H-2z"/>
        <path d="M-2-3h24v24H-2z"/>
        <path d="M18.5 16h-17c-.55 0-1 .45-1 1s.45 1 1 1h17c.55 0 1-.45 1-1s-.45-1-1-1z" fill="#B2E6FA" fill-rule="nonzero"/>
        <path d="M20.07 6.64c-.22-.8-1.04-1.27-1.84-1.06L12.92 7 6.46.98A1.06 1.06 0 0 0 5.44.73c-.68.19-1 .97-.65 1.58l3.44 5.96L3.26 9.6 1.69 8.36c-.25-.19-.57-.26-.88-.18l-.33.09c-.32.08-.47.45-.3.73l1.88 3.25c.23.39.69.58 1.12.47L19 8.48c.8-.22 1.28-1.04 1.07-1.84z" fill="#1C75BC" fill-rule="nonzero"/>
    </g>
</svg>
