<svg width="83" height="83" viewBox="0 0 83 83" xmlns="http://www.w3.org/2000/svg">
    <g fill="none" fill-rule="evenodd" opacity=".3">
        <path d="m41.161.51 41.127 41.128-41.15 41.15L.011 41.661z"/>
        <path d="m41.161.51 41.127 41.128-41.15 41.15L.011 41.661z"/>
        <path d="M58.296 24.503c-9.46-9.459-24.818-9.455-34.283.01-9.464 9.465-9.469 24.823-.01 34.282 9.46 9.46 24.818 9.455 34.283-.01 9.465-9.464 9.469-24.822.01-34.282zM46.29 50.22l-5.141-5.141-5.144 5.143a2.431 2.431 0 0 1-3.428.001 2.431 2.431 0 0 1 0-3.428l5.144-5.144-5.14-5.14a2.431 2.431 0 0 1 0-3.429 2.431 2.431 0 0 1 3.429 0l5.14 5.14 5.144-5.144a2.431 2.431 0 0 1 3.429 0 2.431 2.431 0 0 1-.001 3.428l-5.144 5.143 5.14 5.141a2.431 2.431 0 0 1 0 3.429 2.431 2.431 0 0 1-3.428 0z" fill="#1C75BC" fill-rule="nonzero"/>
    </g>
</svg>
