<svg width="20" height="20" viewBox="0 0 20 20" xmlns="http://www.w3.org/2000/svg">
    <g fill="none" fill-rule="evenodd">
        <path d="M0 0h20v20H0z"/>
        <path d="M0 0h20v20H0z"/>
        <path d="m9.149 11.829 1.672 1.674.012 3.997a.836.836 0 0 1-.833.833.836.836 0 0 1-.827-.729l-.006-.104-.018-5.671zm5.018-10.162c.458 0 .833.375.833.833 0 .423-.32.775-.73.827l-.103.006h-.834V7.5c0 1.15.775 2.117 1.834 2.408.345.098.609.364.658.702l.008.115v.108c0 .423-.32.775-.729.827l-.104.007h-1.325l4.385 4.385a.838.838 0 0 1 .075 1.096l-.075.087a.83.83 0 0 1-1.09.075l-.085-.075-.222-.225a.838.838 0 0 0-.103-.125L2.656 2.983a.83.83 0 0 1 1.178-1.147l.085.074 2.747 2.748V3.333h-.833A.836.836 0 0 1 5 2.5c0-.423.32-.775.73-.827l.103-.006h8.334zm-5.18 10H5a.836.836 0 0 1-.827-.73l-.006-.104v-.108c0-.392.283-.708.666-.817.578-.159 1.07-.519 1.4-1l2.754 2.759z" fill="#A1B4C4" fill-rule="nonzero"/>
    </g>
</svg>
