<svg width="100" height="100" xmlns="http://www.w3.org/2000/svg">
    <g fill-rule="nonzero" fill="none" opacity=".769">
        <path d="M50 2.5C23.875 2.5 2.5 23.875 2.5 50S23.875 97.5 50 97.5 97.5 76.125 97.5 50 76.125 2.5 50 2.5z" stroke="#24BC1C" stroke-width="5"/>
        <path d="M39.81 71.199c1.336 2.234 6.788.131 7.723-1.604A192.424 192.424 0 0 1 76.245 29.57c1.229-1.315-1.056-1.749-1.95-1.735a7.672 7.672 0 0 0-5.091 1.945 197.418 197.418 0 0 0-24.895 33.062l3.224 6.32c-5.868-11.515-9.84-20.326-11.918-26.434-.748-2.208-8.444 0-7.736 2.037A149.821 149.821 0 0 0 39.81 71.2z" fill="#24BC1C"/>
    </g>
</svg>
