<svg width="30" height="26" xmlns="http://www.w3.org/2000/svg">
    <g fill="none" fill-rule="evenodd">
        <path d="M-2.105-4.105H32V30H-2.105z"/>
        <path d="M-2.105-4.105H32V30H-2.105z"/>
        <path d="M14.947 5.842V3A2.85 2.85 0 0 0 12.105.158H3.58A2.85 2.85 0 0 0 .737 3v19.895a2.85 2.85 0 0 0 2.842 2.842h22.737a2.85 2.85 0 0 0 2.842-2.842V8.685a2.85 2.85 0 0 0-2.842-2.843H14.947zM6.421 22.895H3.58v-2.842H6.42v2.842zm0-5.684H3.58v-2.843H6.42v2.843zm0-5.685H3.58V8.684H6.42v2.842zm0-5.684H3.58V3H6.42v2.842zm5.684 17.053H9.263v-2.842h2.842v2.842zm0-5.684H9.263v-2.843h2.842v2.843zm0-5.685H9.263V8.684h2.842v2.842zm0-5.684H9.263V3h2.842v2.842zm12.79 17.053h-9.948v-2.842h2.842V17.21h-2.842v-2.843h2.842v-2.842h-2.842V8.684h9.948c.781 0 1.42.64 1.42 1.421v11.369c0 .781-.639 1.42-1.42 1.42zm-1.421-11.369h-2.842v2.842h2.842v-2.842zm0 5.685h-2.842v2.842h2.842V17.21z" fill="#1C75BC" fill-rule="nonzero"/>
        <path d="M14.947 11.526h2.842v2.842h-2.842v2.843h2.842v2.842h-2.842v2.842h11.369V8.685H14.947v2.841zm5.685 0h2.842v2.842h-2.842v-2.842zm0 5.685h2.842v2.842h-2.842V17.21z" fill="#B2E6FA" fill-rule="nonzero"/>
    </g>
</svg>
